<?xml version="1.0" encoding="UTF-8" standalone="no"?>
<!-- Generator: Adobe Illustrator 23.0.1, SVG Export Plug-In . SVG Version: 6.00 Build 0)  -->

<svg
   xmlns:dc="http://purl.org/dc/elements/1.1/"
   xmlns:cc="http://creativecommons.org/ns#"
   xmlns:rdf="http://www.w3.org/1999/02/22-rdf-syntax-ns#"
   xmlns:svg="http://www.w3.org/2000/svg"
   xmlns="http://www.w3.org/2000/svg"
   xmlns:sodipodi="http://sodipodi.sourceforge.net/DTD/sodipodi-0.dtd"
   xmlns:inkscape="http://www.inkscape.org/namespaces/inkscape"
   version="1.1"
   id="logo"
   x="0px"
   y="0px"
   viewBox="0 0 163.75 161.28"
   xml:space="preserve"
   sodipodi:docname="favicon.svg"
   inkscape:version="0.92.3 (2405546, 2018-03-11)"
   width="163.75"
   height="161.28"><metadata
   id="metadata116"><rdf:RDF><cc:Work
       rdf:about=""><dc:format>image/svg+xml</dc:format><dc:type
         rdf:resource="http://purl.org/dc/dcmitype/StillImage" /><dc:title></dc:title></cc:Work></rdf:RDF></metadata><defs
   id="defs114"><clipPath
     clipPathUnits="userSpaceOnUse"
     id="clipPath13824"><rect
       style="fill:#000000"
       id="rect13826"
       width="105.07053"
       height="10.690462"
       x="394.60577"
       y="356.94247" /></clipPath></defs><sodipodi:namedview
   pagecolor="#ffffff"
   bordercolor="#666666"
   borderopacity="1"
   objecttolerance="10"
   gridtolerance="10"
   guidetolerance="10"
   inkscape:pageopacity="0"
   inkscape:pageshadow="2"
   inkscape:window-width="2560"
   inkscape:window-height="1391"
   id="namedview112"
   showgrid="false"
   inkscape:zoom="2.0972222"
   inkscape:cx="-12.110449"
   inkscape:cy="-45.640806"
   inkscape:window-x="0"
   inkscape:window-y="25"
   inkscape:window-maximized="1"
   inkscape:current-layer="flèche_4_"
   inkscape:measure-start="194.165,370.11"
   inkscape:measure-end="91.6677,370.11" />
<style
   type="text/css"
   id="style10">
	.st0{fill:#1DAAE6;}
	.st1{fill:#312783;}
	.st2{fill:#009FE3;}
	.st3{fill:#575756;}
	.st4{fill:#868686;}
	.st5{fill:#343434;}
	.st6{fill:#777777;}
	.st7{fill:#575757;}
	.st8{fill:#FFFFFF;}
</style>
<g
   id="Pathfinders"
   transform="translate(-91.560005,-205.89)">
</g>
<g
   id="g56"
   transform="translate(-91.560005,-205.89)">
	<g
   id="flèche_3_"
   transform="matrix(0.98347284,0,0,1.0059172,3.2340356,-1.2182953)">
		<g
   id="g17">
			<g
   id="g15">
				<polygon
   class="st0"
   points="190.69,215.13 149.09,361.37 150.62,361.81 192.21,215.56 195.68,218.36 194.14,205.89 186.28,215.68 "
   id="polygon13"
   style="fill:#1daae6" />
			</g>
		</g>
	</g>
	<g
   id="g22">
		<path
   class="st1"
   d="m 117.91,210.3 51.58,81.6 c 4.82,13.2 8.74,25.2 11.76,37.2 h 0.9 c 3.32,-12 7.54,-24 12.36,-37.2 L 219.24896,220.88054 227.71,210.3 198.31,355.5 H 169.48497 L 114.41728,214.7106 Z"
   id="path20"
   inkscape:connector-curvature="0"
   style="fill:#312783"
   sodipodi:nodetypes="ccccccccccc" />
	</g>
	<g
   id="g26">
		<path
   class="st2"
   d="m 146.11,210.3 28.5,81.6 c 4.8,13.2 8.7,25.2 11.7,37.2 h 0.9 c 3.3,-12 7.5,-24 12.3,-37.2 l 28.2,-81.6 h 27.6 l -57,145.2 h -25.2 l -55.2,-145.2 z"
   id="path24"
   inkscape:connector-curvature="0"
   style="fill:#009fe3" />
	</g>
	<g
   id="flèche_4_"
   transform="translate(-244.7807)">
		
		<g
   id="g34">
			<g
   id="g32">
				<path
   style="fill:#1daae6"
   d="m 499.35,362.29 -11.58,-4.89 1.74,4.09 H 149.86 v 1.59 h 339.65 l -1.74,4.09 z"
   id="polygon30"
   clip-path="url(#clipPath13824)"
   inkscape:connector-curvature="0" />
			</g>
		</g>
	</g>
	
	<g
   id="flèche_5_"
   transform="matrix(1.0128562,0,0,1.0492795,-1.1771091,-17.745499)">
		<g
   id="g53">
			<g
   id="g51">
				<polygon
   class="st0"
   points="100.67,222.21 91.93,213.19 91.56,225.74 94.75,222.64 149.12,362.94 150.6,362.37 96.23,222.07 "
   id="polygon49"
   style="fill:#1daae6" />
			</g>
		</g>
	</g>
</g>





</svg>