<?xml version="1.0" encoding="UTF-8" standalone="no"?>
<!-- Generator: Adobe Illustrator 23.0.1, SVG Export Plug-In . SVG Version: 6.00 Build 0)  -->

<svg
   xmlns:dc="http://purl.org/dc/elements/1.1/"
   xmlns:cc="http://creativecommons.org/ns#"
   xmlns:rdf="http://www.w3.org/1999/02/22-rdf-syntax-ns#"
   xmlns:svg="http://www.w3.org/2000/svg"
   xmlns="http://www.w3.org/2000/svg"
   xmlns:sodipodi="http://sodipodi.sourceforge.net/DTD/sodipodi-0.dtd"
   xmlns:inkscape="http://www.inkscape.org/namespaces/inkscape"
   version="1.1"
   id="logo"
   x="0px"
   y="0px"
   viewBox="0 0 407.79001 170.74001"
   xml:space="preserve"
   sodipodi:docname="POISSON_Laurie_01_TP1.svg"
   inkscape:version="0.92.3 (2405546, 2018-03-11)"
   width="407.79001"
   height="170.74001"><metadata
   id="metadata116"><rdf:RDF><cc:Work
       rdf:about=""><dc:format>image/svg+xml</dc:format><dc:type
         rdf:resource="http://purl.org/dc/dcmitype/StillImage" /><dc:title /></cc:Work></rdf:RDF></metadata><defs
   id="defs114" /><sodipodi:namedview
   pagecolor="#ffffff"
   bordercolor="#666666"
   borderopacity="1"
   objecttolerance="10"
   gridtolerance="10"
   guidetolerance="10"
   inkscape:pageopacity="0"
   inkscape:pageshadow="2"
   inkscape:window-width="2560"
   inkscape:window-height="1391"
   id="namedview112"
   showgrid="false"
   inkscape:zoom="2.0972222"
   inkscape:cx="37.847565"
   inkscape:cy="-11.50094"
   inkscape:window-x="0"
   inkscape:window-y="25"
   inkscape:window-maximized="1"
   inkscape:current-layer="g56"
   inkscape:measure-start="91.9348,370.05"
   inkscape:measure-end="0,0" />
<style
   type="text/css"
   id="style10">
	.st0{fill:#1DAAE6;}
	.st1{fill:#312783;}
	.st2{fill:#009FE3;}
	.st3{fill:#575756;}
	.st4{fill:#868686;}
	.st5{fill:#343434;}
	.st6{fill:#777777;}
	.st7{fill:#575757;}
	.st8{fill:#FFFFFF;}
</style>
<g
   id="Pathfinders"
   transform="translate(-91.560005,-205.89)">
</g>
<g
   id="g56"
   transform="translate(-91.560005,-205.89)">
	<g
   id="flèche_3_"
   transform="matrix(0.98347284,0,0,1.0059172,3.2340356,-1.2182953)">
		<g
   id="g17">
			<g
   id="g15">
				<polygon
   class="st0"
   points="194.14,205.89 186.28,215.68 190.69,215.13 149.09,361.37 150.62,361.81 192.21,215.56 195.68,218.36 "
   id="polygon13"
   style="fill:#1daae6" />
			</g>
		</g>
	</g>
	<g
   id="g22">
		<path
   class="st1"
   d="m 117.91,210.3 51.58,81.6 c 4.82,13.2 8.74,25.2 11.76,37.2 h 0.9 c 3.32,-12 7.54,-24 12.36,-37.2 L 219.24896,220.88054 227.71,210.3 198.31,355.5 H 169.48497 L 114.41728,214.7106 Z"
   id="path20"
   inkscape:connector-curvature="0"
   style="fill:#312783"
   sodipodi:nodetypes="ccccccccccc" />
	</g>
	<g
   id="g26">
		<path
   class="st2"
   d="m 146.11,210.3 28.5,81.6 c 4.8,13.2 8.7,25.2 11.7,37.2 h 0.9 c 3.3,-12 7.5,-24 12.3,-37.2 l 28.2,-81.6 h 27.6 l -57,145.2 h -25.2 l -55.2,-145.2 z"
   id="path24"
   inkscape:connector-curvature="0"
   style="fill:#009fe3" />
	</g>
	<g
   id="flèche_4_">
		<line
   class="st2"
   x1="149.86"
   y1="362.29001"
   x2="499.35001"
   y2="362.29001"
   id="line28"
   style="fill:#009fe3" />
		<g
   id="g34">
			<g
   id="g32">
				<polygon
   class="st0"
   points="487.77,367.17 499.35,362.29 487.77,357.4 489.51,361.49 149.86,361.49 149.86,363.08 489.51,363.08 "
   id="polygon30"
   style="fill:#1daae6" />
			</g>
		</g>
	</g>
	<g
   id="g47">
		<path
   class="st3"
   d="m 245.94,335.04 c -2.21,-0.11 -4.3,-0.17 -6.27,-0.17 -9.24,0 -13.86,2.73 -13.86,8.18 0,2.27 1.08,4.1 3.24,5.48 2.16,1.38 5.16,2.08 9.01,2.08 5.09,0 9.74,-1.09 13.95,-3.28 v 7.18 c -3.82,1.41 -8.63,2.12 -14.44,2.12 -5.62,0 -10.14,-1.18 -13.57,-3.53 -3.43,-2.35 -5.15,-5.69 -5.15,-10 0,-2.79 1.06,-5.22 3.17,-7.28 2.12,-2.06 4.86,-3.37 8.24,-3.92 v -0.17 c -2.68,-0.53 -4.97,-1.81 -6.85,-3.84 -1.88,-2.03 -2.82,-4.2 -2.82,-6.5 0,-4.15 1.61,-7.34 4.83,-9.57 3.22,-2.23 7.41,-3.34 12.56,-3.34 4.23,0 8.25,0.68 12.04,2.03 v 7.22 c -3.93,-2.16 -8.13,-3.24 -12.62,-3.24 -6.56,0 -9.84,2.24 -9.84,6.72 0,2.44 1.27,4.32 3.82,5.64 2.55,1.33 5.64,1.99 9.3,1.99 2.19,0 3.94,-0.05 5.27,-0.17 v 6.37 z"
   id="path37"
   inkscape:connector-curvature="0"
   style="fill:#575756" />
		<path
   class="st3"
   d="m 293.76,353.35 c -3.57,2.16 -7.72,3.24 -12.45,3.24 -6.5,0 -11.75,-2.12 -15.75,-6.37 -4,-4.25 -6,-9.77 -6,-16.58 0,-7.61 2.16,-13.7 6.47,-18.26 4.32,-4.56 10.06,-6.85 17.22,-6.85 3.96,0 7.48,0.75 10.58,2.24 v 7.26 c -3.43,-2.41 -7.1,-3.61 -11,-3.61 -4.7,0 -8.58,1.7 -11.64,5.08 -3.06,3.39 -4.59,7.89 -4.59,13.51 0,5.48 1.42,9.79 4.27,12.95 2.85,3.15 6.68,4.73 11.5,4.73 4.07,0 7.86,-1.34 11.37,-4.03 v 6.69 z"
   id="path39"
   inkscape:connector-curvature="0"
   style="fill:#575756" />
		<path
   class="st3"
   d="m 311.89,348.78 v 27.85 h -6.93 V 309.6 h 6.93 v 8.13 h 0.21 c 3.63,-6.14 8.92,-9.21 15.9,-9.21 5.84,0 10.44,2.04 13.82,6.12 3.38,4.08 5.06,9.61 5.06,16.58 0,7.64 -1.89,13.77 -5.67,18.41 -3.78,4.63 -8.89,6.95 -15.34,6.95 -5.98,0 -10.57,-2.6 -13.78,-7.8 z m 0,-11.87 c 0,3.85 1.29,7.1 3.86,9.77 2.57,2.67 5.74,4 9.5,4 4.51,0 8.06,-1.74 10.65,-5.23 2.59,-3.49 3.88,-8.3 3.88,-14.44 0,-5.17 -1.22,-9.23 -3.65,-12.18 -2.44,-2.95 -5.67,-4.42 -9.71,-4.42 -4.21,0 -7.68,1.49 -10.42,4.46 -2.74,2.97 -4.11,6.77 -4.11,11.39 z"
   id="path41"
   inkscape:connector-curvature="0"
   style="fill:#575756" />
		<path
   class="st3"
   d="m 396.44,332.06 c 1.02,6.81 2.1,11.37 3.22,13.67 1.12,2.31 2.57,3.47 4.34,3.47 0.75,0 1.33,-0.05 1.74,-0.17 v 6.31 c -1.74,0.36 -3.11,0.54 -4.11,0.54 -4.51,0 -7.57,-4.45 -9.17,-13.36 h -0.12 c -4.51,9.38 -10.74,14.07 -18.68,14.07 -5.56,0 -10.02,-2.15 -13.36,-6.45 -3.35,-4.3 -5.02,-9.72 -5.02,-16.25 0,-7.42 1.92,-13.5 5.75,-18.24 3.83,-4.74 9.05,-7.12 15.67,-7.12 3.71,0 7.07,1.12 10.08,3.36 3.02,2.24 5.3,5.47 6.85,9.67 h 0.21 l 3.9,-11.95 H 405 Z m -5.9,0.12 c -2.46,-11.9 -7.1,-17.85 -13.9,-17.85 -4.37,0 -7.84,1.87 -10.4,5.6 -2.56,3.73 -3.84,8.26 -3.84,13.57 0,4.79 1.09,8.8 3.28,12.04 2.19,3.24 5.12,4.86 8.8,4.86 6.7,0 11.86,-5.42 15.48,-16.27 z"
   id="path43"
   inkscape:connector-curvature="0"
   style="fill:#575756" />
		<path
   class="st3"
   d="m 453.8,355.51 h -6.89 v -7.89 h -0.17 c -3.4,5.98 -8.69,8.96 -15.85,8.96 -5.81,0 -10.43,-2.07 -13.86,-6.21 -3.43,-4.14 -5.15,-9.72 -5.15,-16.75 0,-7.53 1.92,-13.59 5.77,-18.2 3.85,-4.61 8.92,-6.91 15.23,-6.91 6.31,0 10.93,2.5 13.86,7.51 h 0.17 v -28.47 h 6.89 z m -6.89,-27.65 c 0,-3.76 -1.28,-6.94 -3.84,-9.55 -2.56,-2.6 -5.69,-3.9 -9.4,-3.9 -4.59,0 -8.2,1.7 -10.81,5.08 -2.61,3.39 -3.92,7.98 -3.92,13.76 0,5.29 1.25,9.51 3.76,12.68 2.51,3.17 5.87,4.75 10.11,4.75 4.07,0 7.44,-1.49 10.11,-4.46 2.67,-2.97 4,-6.77 4,-11.39 v -6.97 z"
   id="path45"
   inkscape:connector-curvature="0"
   style="fill:#575756" />
	</g>
	<g
   id="flèche_5_"
   transform="matrix(1.0128562,0,0,1.0492795,-1.1771091,-17.745499)">
		<g
   id="g53">
			<g
   id="g51">
				<polygon
   class="st0"
   points="150.6,362.37 96.23,222.07 100.67,222.21 91.93,213.19 91.56,225.74 94.75,222.64 149.12,362.94 "
   id="polygon49"
   style="fill:#1daae6" />
			</g>
		</g>
	</g>
</g>





</svg>